<svg width="23" height="23" viewBox="0 0 23 23" fill="none" xmlns="http://www.w3.org/2000/svg">
<path d="M11.3694 0C7.90984 0 4.92812 1.61163 2.74918 4.21255V3.45941C2.74918 3.08282 2.44337 2.77646 2.06746 2.77646C1.69155 2.77646 1.38573 3.08282 1.38573 3.45941V6.36033C1.38573 7.01136 2.22673 7.1039 2.06746 7.04328C2.08021 7.04328 2.09613 7.04328 2.10888 7.04328L4.83575 7.03371C5.21166 7.01136 5.49837 6.68585 5.47286 6.30929C5.44736 5.93273 5.12246 5.64868 4.74974 5.67103L3.36721 5.59764C5.28176 2.99032 8.08825 1.36594 11.3662 1.36594C17.0048 1.36594 21.6365 6.45293 21.6365 12.1016C21.6365 12.4782 21.9423 12.7845 22.3183 12.7845C22.6942 12.7845 23 12.4782 23 12.1016C23.0032 5.69978 17.7597 5.97589e-05 11.3694 5.97589e-05L11.3694 0ZM11.6306 23C15.0902 23 18.1355 21.3884 20.3145 18.7874V19.5405C20.3145 19.9172 20.6203 20.2235 20.9963 20.2235C21.3721 20.2235 21.678 19.9172 21.678 19.5405V16.6397C21.678 15.9886 20.837 15.8961 20.9963 15.9566C20.9834 15.9566 20.9675 15.9566 20.9549 15.9566L18.2279 15.9663C17.852 15.9886 17.5653 16.3141 17.5909 16.6907C17.6164 17.0672 17.9412 17.3512 18.314 17.3288L19.6964 17.4024C17.782 20.0095 14.9118 21.6341 11.6338 21.6341C5.99529 21.6341 1.36345 16.6109 1.36345 10.9622C1.36345 10.5856 1.05764 10.2792 0.681726 10.2792C0.305818 10.2792 1.46004e-06 10.5856 1.46004e-06 10.9622C-0.00319432 17.3641 5.2403 22.9998 11.6306 22.9998L11.6306 23ZM10.8947 5.68058C10.8947 5.35826 11.1814 5.09976 11.5382 5.09976C11.895 5.09976 12.1817 5.36146 12.1817 5.68058V17.2748C12.1817 17.5971 11.895 17.8555 11.5382 17.8555C11.1814 17.8555 10.8947 17.5938 10.8947 17.2748V5.68058ZM5.75001 12.1175C5.42827 12.1175 5.16704 11.8303 5.16704 11.4728C5.16704 11.1154 5.42827 10.8282 5.75001 10.8282H17.3392C17.6609 10.8282 17.9221 11.1154 17.9221 11.4728C17.9221 11.8303 17.6609 12.1175 17.3392 12.1175H5.75001Z" fill="#231D19"/>
</svg>
