<svg width="23" height="15" viewBox="0 0 23 15" fill="none" xmlns="http://www.w3.org/2000/svg">
<path d="M0 2.99999C0 1.34315 1.54462 0 3.45001 0H19.55C21.4554 0 23 1.34315 23 2.99999V12C23 13.6568 21.4554 15 19.55 15H3.45001C1.54462 15 0 13.6568 0 12V2.99999ZM3.45001 1C2.17976 1 1.15001 1.89546 1.15001 2.99999H21.85C21.85 1.89546 20.8203 1 19.55 1H3.45003H3.45001ZM1.15001 5.99998V12C1.15001 13.1045 2.17976 13.9999 3.45001 13.9999H19.55C20.8203 13.9999 21.85 13.1045 21.85 12V5.99998H1.14999H1.15001Z" fill="#231D19"/>
</svg>
