<svg width="23" height="23" viewBox="0 0 23 23" fill="none" xmlns="http://www.w3.org/2000/svg">
<path d="M16.1007 16.9762C16.1007 17.2773 15.8419 17.5238 15.5257 17.5238H14.3758C14.0596 17.5238 13.8008 17.2773 13.8008 16.9762C13.8008 16.675 14.0596 16.4286 14.3758 16.4286H15.5257C15.8419 16.4286 16.1007 16.675 16.1007 16.9762ZM15.5257 18.6191H14.3758C14.0596 18.6191 13.8008 18.8655 13.8008 19.1666C13.8008 19.4679 14.0596 19.7143 14.3758 19.7143H15.5257C15.8419 19.7143 16.1007 19.4679 16.1007 19.1666C16.1007 18.8655 15.8419 18.6191 15.5257 18.6191ZM5.89247 2.05631L1.01119 6.70285C-0.337064 7.98702 -0.337064 10.0652 1.01119 11.3494L9.20127 19.1502V17.6005L1.82472 10.5772C0.927806 9.72296 0.927806 8.33475 1.82472 7.48046L9.20127 14.5037V9.85713L4.26536 5.15582L6.706 2.83118C7.38157 2.18771 8.37046 2.02892 9.20412 2.352V1.202C8.05711 0.917248 6.78935 1.202 5.89244 2.05629L5.89247 2.05631ZM15.5257 14.2381H14.3758C14.0596 14.2381 13.8008 14.4845 13.8008 14.7857C13.8008 15.087 14.0596 15.3334 14.3758 15.3334H15.5257C15.8419 15.3334 16.1007 15.087 16.1007 14.7857C16.1007 14.4845 15.8419 14.2381 15.5257 14.2381ZM18.9753 16.4286H17.8255C17.5092 16.4286 17.2505 16.675 17.2505 16.9762C17.2505 17.2773 17.5092 17.5238 17.8255 17.5238H18.9753C19.2916 17.5238 19.5503 17.2773 19.5503 16.9762C19.5503 16.675 19.2916 16.4286 18.9753 16.4286ZM23 1.09524V12.0476L21.9535 22.0143C21.8961 22.5729 21.3987 23 20.8095 23H12.5417C11.9495 23 11.4551 22.5729 11.3976 22.0143L10.3512 12.0476V1.09524C10.3512 0.490131 10.8657 0 11.5011 0H21.85C22.4854 0 23 0.490105 23 1.09524ZM21.85 1.09524H11.5011V12.0476L12.651 21.9048H20.7002L21.8502 12.0476V1.09524H21.85ZM18.9753 14.2381H17.8255C17.5092 14.2381 17.2505 14.4845 17.2505 14.7857C17.2505 15.087 17.5092 15.3334 17.8255 15.3334H18.9753C19.2916 15.3334 19.5503 15.087 19.5503 14.7857C19.5503 14.4845 19.2916 14.2381 18.9753 14.2381ZM12.6509 10.9524V3.28571C12.6509 2.6806 13.1655 2.19046 13.8008 2.19046H19.5503C20.1856 2.19046 20.7002 2.68057 20.7002 3.28571V10.9524C20.7002 11.5575 20.1856 12.0476 19.5503 12.0476H13.8008C13.1655 12.0476 12.6509 11.5575 12.6509 10.9524ZM13.8008 10.9524H19.5503V3.28571H13.8008V10.9524ZM18.9753 18.6191H17.8255C17.5092 18.6191 17.2505 18.8655 17.2505 19.1666C17.2505 19.4679 17.5092 19.7143 17.8255 19.7143H18.9753C19.2916 19.7143 19.5503 19.4679 19.5503 19.1666C19.5503 18.8655 19.2916 18.6191 18.9753 18.6191Z" fill="#231D19"/>
</svg>
