<svg width="23" height="23" viewBox="0 0 23 23" fill="none" xmlns="http://www.w3.org/2000/svg">
<path d="M13.9683 1.02416C12.6026 -0.341387 10.3916 -0.341387 9.0259 1.02416L4.647 5.40538H5.06392C5.96671 5.40538 6.8149 5.7561 7.4532 6.3943L10.9034 9.84408C11.1536 10.0942 11.5618 10.0942 11.8091 9.84408L15.2708 6.3828C15.9091 5.74459 16.7573 5.39387 17.6602 5.39387H18.3386L13.9684 1.02416H13.9683ZM14.5548 5.69861L11.326 8.92415L8.11159 5.71012C7.68894 5.28752 7.19729 4.96553 6.65962 4.74706L9.69007 1.717C10.6734 0.733813 12.272 0.733813 13.2524 1.717L16.1995 4.66367C15.5871 4.8764 15.0264 5.22715 14.5548 5.69861ZM17.66 17.6061C16.7573 17.6061 15.9091 17.2553 15.2708 16.6171L11.8062 13.1559C11.5647 12.9144 11.142 12.9144 10.9005 13.1559L7.45031 16.6056C6.81202 17.2438 5.96383 17.5946 5.06103 17.5946H4.64412L9.0259 21.9758C10.3916 23.3414 12.6026 23.3414 13.9683 21.9758L18.3386 17.6061H17.66ZM13.2524 21.3088C12.2691 22.292 10.6705 22.292 9.69007 21.3088L6.65962 18.2788C7.19729 18.0632 7.68894 17.7383 8.11159 17.3157L11.326 14.1016L14.5548 17.3301C15.0264 17.8016 15.5871 18.1524 16.1995 18.365L13.2524 21.3089V21.3088ZM21.9757 9.0305L19.3535 6.40867H17.66C17.0361 6.40867 16.4295 6.66166 15.9896 7.10151L12.525 10.5628C12.203 10.8848 11.7775 11.0458 11.3548 11.0458C10.9322 11.0458 10.5066 10.8848 10.1846 10.5628L6.73439 7.11302C6.29449 6.67317 5.68496 6.42018 5.06392 6.42018H3.63496L1.0243 9.0305C-0.341432 10.396 -0.341432 12.6068 1.0243 13.9723L3.63496 16.5826H5.06392C5.68784 16.5826 6.29449 16.3296 6.73439 15.8897L10.1846 12.44C10.8085 11.8133 11.9011 11.8133 12.5279 12.44L15.9896 15.9013C16.4295 16.3411 17.039 16.5942 17.66 16.5942H19.3535L21.9757 13.9723C23.3414 12.6068 23.3414 10.3932 21.9757 9.0305ZM9.46292 11.7616L6.00696 15.2143C5.74819 15.473 5.39166 15.6195 5.02653 15.6195H4.00009L1.67407 13.2938C0.690757 12.3107 0.690757 10.7123 1.67407 9.73199L4.00009 7.40628H5.02653C5.39169 7.40628 5.74819 7.55578 6.00696 7.81162L9.46007 11.2643C9.54921 11.3534 9.64694 11.4368 9.74759 11.5115C9.64696 11.5891 9.55208 11.6696 9.46295 11.7616L9.46292 11.7616ZM21.2684 13.2938L18.9309 15.6311H17.64C17.2748 15.6311 16.9182 15.4816 16.6595 15.2257L13.1892 11.7587C13.1001 11.6696 13.0022 11.5862 12.9045 11.5115C13.0051 11.4367 13.1001 11.3534 13.1892 11.2643L16.6567 7.79723C16.9155 7.5385 17.2719 7.39188 17.6371 7.39188H18.928L21.2684 9.73199C21.7458 10.2092 22.0073 10.8417 22.0073 11.5144C22.0073 12.1871 21.7456 12.8195 21.2684 13.2938Z" fill="#231D19"/>
</svg>
